REM DIRINDEX 1\4,1\2\5,1\2\6,1\3\7,1\3\8
REM DIRNAME cjc124,folder01,folder02,folder03,folder04,folder05,folder06,folder07
TITLE ""
FILE "031_Day16_Check2_Phrases.mp3" MP3
  TRACK 01 AUDIO
    TITLE "0:"
    INDEX 01 00:00:00
  TRACK 02 AUDIO
    TITLE "4:cjc124_0993"
    INDEX 01 00:00:31
  TRACK 03 AUDIO
    TITLE "0:"
    INDEX 01 00:01:46
  TRACK 04 AUDIO
    TITLE "5:cjc124_0994"
    INDEX 01 00:02:04
  TRACK 05 AUDIO
    TITLE "0:"
    INDEX 01 00:04:27
  TRACK 06 AUDIO
    TITLE "6:cjc124_0995"
    INDEX 01 00:04:68
  TRACK 07 AUDIO
    TITLE "0:"
    INDEX 01 00:06:61
  TRACK 08 AUDIO
    TITLE "5:cjc124_0996"
    INDEX 01 00:07:25
  TRACK 09 AUDIO
    TITLE "0:"
    INDEX 01 00:09:20
  TRACK 10 AUDIO
    TITLE "6:cjc124_0997"
    INDEX 01 00:09:36
  TRACK 11 AUDIO
    TITLE "0:"
    INDEX 01 00:11:21
  TRACK 12 AUDIO
    TITLE "5:cjc124_0998"
    INDEX 01 00:11:62
  TRACK 13 AUDIO
    TITLE "0:"
    INDEX 01 00:13:16
  TRACK 14 AUDIO
    TITLE "6:cjc124_0999"
    INDEX 01 00:13:32
  TRACK 15 AUDIO
    TITLE "0:"
    INDEX 01 00:15:30
  TRACK 16 AUDIO
    TITLE "5:cjc124_1000"
    INDEX 01 00:16:02
  TRACK 17 AUDIO
    TITLE "0:"
    INDEX 01 00:17:37
  TRACK 18 AUDIO
    TITLE "6:cjc124_1001"
    INDEX 01 00:17:53
  TRACK 19 AUDIO
    TITLE "0:"
    INDEX 01 00:19:01
  TRACK 20 AUDIO
    TITLE "5:cjc124_1002"
    INDEX 01 00:19:42
  TRACK 21 AUDIO
    TITLE "0:"
    INDEX 01 00:21:58
  TRACK 22 AUDIO
    TITLE "6:cjc124_1003"
    INDEX 01 00:21:74
  TRACK 23 AUDIO
    TITLE "0:"
    INDEX 01 00:23:63
  TRACK 24 AUDIO
    TITLE "5:cjc124_1004"
    INDEX 01 00:24:27
  TRACK 25 AUDIO
    TITLE "0:"
    INDEX 01 00:26:22
  TRACK 26 AUDIO
    TITLE "6:cjc124_1005"
    INDEX 01 00:26:40
  TRACK 27 AUDIO
    TITLE "0:"
    INDEX 01 00:28:31
  TRACK 28 AUDIO
    TITLE "5:cjc124_1006"
    INDEX 01 00:28:70
  TRACK 29 AUDIO
    TITLE "0:"
    INDEX 01 00:30:42
  TRACK 30 AUDIO
    TITLE "6:cjc124_1007"
    INDEX 01 00:30:57
  TRACK 31 AUDIO
    TITLE "0:"
    INDEX 01 00:32:54
  TRACK 32 AUDIO
    TITLE "5:cjc124_1008"
    INDEX 01 00:33:17
  TRACK 33 AUDIO
    TITLE "0:"
    INDEX 01 00:35:51
  TRACK 34 AUDIO
    TITLE "6:cjc124_1009"
    INDEX 01 00:35:68
  TRACK 35 AUDIO
    TITLE "0:"
    INDEX 01 00:37:73
  TRACK 36 AUDIO
    TITLE "5:cjc124_1010"
    INDEX 01 00:38:35
  TRACK 37 AUDIO
    TITLE "0:"
    INDEX 01 00:40:07
  TRACK 38 AUDIO
    TITLE "6:cjc124_1011"
    INDEX 01 00:40:21
  TRACK 39 AUDIO
    TITLE "0:"
    INDEX 01 00:42:00
  TRACK 40 AUDIO
    TITLE "5:cjc124_1012"
    INDEX 01 00:42:37
  TRACK 41 AUDIO
    TITLE "0:"
    INDEX 01 00:44:32
  TRACK 42 AUDIO
    TITLE "6:cjc124_1013"
    INDEX 01 00:44:46
  TRACK 43 AUDIO
    TITLE "0:"
    INDEX 01 00:46:21
  TRACK 44 AUDIO
    TITLE "5:cjc124_1014"
    INDEX 01 00:46:60
  TRACK 45 AUDIO
    TITLE "0:"
    INDEX 01 00:48:30
  TRACK 46 AUDIO
    TITLE "6:cjc124_1015"
    INDEX 01 00:48:46
  TRACK 47 AUDIO
    TITLE "0:"
    INDEX 01 00:50:07
  TRACK 48 AUDIO
    TITLE "5:cjc124_1016"
    INDEX 01 00:50:46
  TRACK 49 AUDIO
    TITLE "0:"
    INDEX 01 00:52:32
  TRACK 50 AUDIO
    TITLE "6:cjc124_1017"
    INDEX 01 00:52:49
  TRACK 51 AUDIO
    TITLE "0:"
    INDEX 01 00:54:21
  TRACK 52 AUDIO
    TITLE "5:cjc124_1018"
    INDEX 01 00:54:62
  TRACK 53 AUDIO
    TITLE "0:"
    INDEX 01 00:56:53
  TRACK 54 AUDIO
    TITLE "6:cjc124_1019"
    INDEX 01 00:56:69
  TRACK 55 AUDIO
    TITLE "0:"
    INDEX 01 00:58:18
  TRACK 56 AUDIO
    TITLE "5:cjc124_1020"
    INDEX 01 00:58:58
  TRACK 57 AUDIO
    TITLE "0:"
    INDEX 01 01:01:05
  TRACK 58 AUDIO
    TITLE "6:cjc124_1021"
    INDEX 01 01:01:19
  TRACK 59 AUDIO
    TITLE "0:"
    INDEX 01 01:03:65
  TRACK 60 AUDIO
    TITLE "5:cjc124_1022"
    INDEX 01 01:04:29
  TRACK 61 AUDIO
    TITLE "0:"
    INDEX 01 01:06:30
  TRACK 62 AUDIO
    TITLE "6:cjc124_1023"
    INDEX 01 01:06:45
  TRACK 63 AUDIO
    TITLE "0:"
    INDEX 01 01:08:15
  TRACK 64 AUDIO
    TITLE "5:cjc124_1024"
    INDEX 01 01:08:52
  TRACK 65 AUDIO
    TITLE "0:"
    INDEX 01 01:10:12
  TRACK 66 AUDIO
    TITLE "6:cjc124_1025"
    INDEX 01 01:10:41
  TRACK 67 AUDIO
    TITLE "0:"
    INDEX 01 01:11:72
